<svg width="55" height="55" viewBox="0 0 55 55" fill="none" xmlns="http://www.w3.org/2000/svg">
<path d="M27.5 45.8334C37.5833 45.8334 45.8333 37.5834 45.8333 27.5C45.8333 17.4167 37.5833 9.16671 27.5 9.16671C17.4166 9.16671 9.16665 17.4167 9.16665 27.5C9.16665 37.5834 17.4166 45.8334 27.5 45.8334ZM27.5 4.58337C40.1041 4.58337 50.4166 14.8959 50.4166 27.5C50.4166 40.1042 40.1041 50.4167 27.5 50.4167C14.8958 50.4167 4.58331 40.1042 4.58331 27.5C4.58331 14.8959 14.8958 4.58337 27.5 4.58337ZM35.0625 37.125L32.0833 38.9584L25.2083 27.0417V16.0417H28.6458V26.125L35.0625 37.125Z" fill="#222222"/>
</svg>
