<svg width="55" height="55" viewBox="0 0 55 55" fill="none" xmlns="http://www.w3.org/2000/svg">
<path d="M43.5416 20.625C43.5427 17.8633 42.8307 15.1481 41.4747 12.7423C40.1186 10.3364 38.1644 8.32144 35.8013 6.89231C33.4381 5.46319 30.746 4.66835 27.9856 4.58475C25.2252 4.50114 22.49 5.1316 20.0446 6.41508C17.5993 7.69857 15.5268 9.59162 14.0276 11.911C12.5285 14.2303 11.6535 16.8974 11.4874 19.6541C11.3212 22.4108 11.8696 25.1637 13.0794 27.6463C14.2892 30.1289 16.1194 32.2571 18.3929 33.825L11.4583 45.8333L16.6283 46.0464L19.3966 50.4166L27.3396 36.6575C27.3946 36.6575 27.445 36.6666 27.5 36.6666C27.555 36.6666 27.6054 36.6598 27.6604 36.6575L35.6033 50.4166L38.4266 46.1404L43.5416 45.8333L36.6071 33.825C38.7466 32.3519 40.4958 30.3806 41.7038 28.081C42.9119 25.7814 43.5426 23.2226 43.5416 20.625ZM16.0416 20.625C16.0416 18.3587 16.7137 16.1434 17.9727 14.2591C19.2318 12.3747 21.0213 10.9061 23.1151 10.0389C25.2088 9.1716 27.5127 8.94468 29.7354 9.38681C31.9581 9.82893 33.9998 10.9202 35.6022 12.5227C37.2047 14.1252 38.296 16.1669 38.7381 18.3896C39.1803 20.6123 38.9534 22.9161 38.0861 25.0099C37.2188 27.1036 35.7502 28.8932 33.8659 30.1522C31.9816 31.4113 29.7662 32.0833 27.5 32.0833C24.461 32.0833 21.5466 30.8761 19.3977 28.7272C17.2489 26.5784 16.0416 23.6639 16.0416 20.625V20.625Z" fill="#222222"/>
<path d="M27.5 27.5C31.297 27.5 34.375 24.422 34.375 20.625C34.375 16.828 31.297 13.75 27.5 13.75C23.703 13.75 20.625 16.828 20.625 20.625C20.625 24.422 23.703 27.5 27.5 27.5Z" fill="#222222"/>
</svg>
