<svg width="55" height="55" viewBox="0 0 55 55" fill="none" xmlns="http://www.w3.org/2000/svg">
<path d="M12.996 9.75559C21.9977 2.37871 35.3008 2.89205 43.7044 11.2956C52.6533 20.2445 52.6533 34.7554 43.7044 43.7043C34.7554 52.6533 20.2446 52.6533 11.2956 43.7043C8.54936 40.9618 6.54517 37.5663 5.47126 33.8367C4.39735 30.1071 4.28896 26.1657 5.15625 22.3827L5.33271 21.6654L9.76479 22.8341C8.66604 27.0101 9.07659 31.44 10.9241 35.3429C12.7716 39.2459 15.9375 42.3715 19.8638 44.1688C23.7901 45.9662 28.2248 46.3199 32.3864 45.1677C36.548 44.0156 40.1693 41.4314 42.6122 37.8707C45.0551 34.31 46.1628 30.0013 45.7399 25.7039C45.3171 21.4065 43.391 17.3963 40.3009 14.38C37.2109 11.3636 33.1554 9.53482 28.8491 9.21582C24.5427 8.89682 20.262 10.1081 16.7613 12.6362L16.2548 13.0166L18.5854 15.3473L8.05292 17.7764L10.4821 7.24392L12.9938 9.75559H12.996ZM29.7917 13.75V18.3333H35.5208V22.9166H22.9167C22.6303 22.9161 22.3542 23.0228 22.1426 23.2157C21.931 23.4086 21.7993 23.6738 21.7734 23.9589C21.7475 24.2441 21.8294 24.5286 22.0028 24.7565C22.1762 24.9843 22.4287 25.139 22.7104 25.19L22.9167 25.2083H32.0833C33.6028 25.2083 35.06 25.8119 36.1345 26.8863C37.2089 27.9608 37.8125 29.418 37.8125 30.9375C37.8125 32.4569 37.2089 33.9142 36.1345 34.9886C35.06 36.063 33.6028 36.6666 32.0833 36.6666H29.7917V41.25H25.2083V36.6666H19.4792V32.0833H32.0833C32.3697 32.0838 32.6458 31.9771 32.8574 31.7842C33.069 31.5913 33.2007 31.3262 33.2266 31.041C33.2525 30.7558 33.1706 30.4713 32.9972 30.2435C32.8238 30.0156 32.5713 29.861 32.2896 29.81L32.0833 29.7916H22.9167C21.3972 29.7916 19.94 29.188 18.8655 28.1136C17.7911 27.0392 17.1875 25.5819 17.1875 24.0625C17.1875 22.543 17.7911 21.0858 18.8655 20.0113C19.94 18.9369 21.3972 18.3333 22.9167 18.3333H25.2083V13.75H29.7917Z" fill="#222222"/>
</svg>
